<mxfile host="app.diagrams.net" agent="Mozilla/5.0 (Windows NT 10.0; Win64; x64) AppleWebKit/537.36 (KHTML, like Gecko) Chrome/128.0.0.0 Safari/537.36 OPR/114.0.0.0" version="24.8.6">
  <diagram name="Page-1" id="RHXMkg8_H6TQGiqPr1Bk">
    <mxGraphModel dx="1180" dy="2975" grid="1" gridSize="10" guides="1" tooltips="1" connect="1" arrows="1" fold="1" page="1" pageScale="1" pageWidth="850" pageHeight="1100" math="0" shadow="0">
      <root>
        <mxCell id="0" />
        <mxCell id="1" parent="0" />
        <mxCell id="zv_h5Y6OcpjjRqXLdyc9-14" value="&lt;h2&gt;Organization Boundary&lt;/h2&gt;" style="rounded=0;whiteSpace=wrap;html=1;align=left;verticalAlign=top;labelPosition=center;verticalLabelPosition=middle;spacing=2;spacingLeft=0;spacingBottom=0;spacingTop=-17;" parent="1" vertex="1">
          <mxGeometry x="149" y="-2190" width="541" height="430" as="geometry" />
        </mxCell>
        <mxCell id="zv_h5Y6OcpjjRqXLdyc9-17" value="" style="group;textShadow=1;" parent="1" vertex="1" connectable="0">
          <mxGeometry x="200" y="-2150" width="550" height="380" as="geometry" />
        </mxCell>
        <mxCell id="zv_h5Y6OcpjjRqXLdyc9-18" value="&lt;h3&gt;LiteRAGBot System&lt;/h3&gt;" style="rounded=0;whiteSpace=wrap;html=1;align=left;verticalAlign=top;labelPosition=center;verticalLabelPosition=middle;spacing=2;spacingLeft=0;spacingBottom=0;spacingTop=-17;fillColor=#d5e8d4;strokeColor=#82b366;" parent="zv_h5Y6OcpjjRqXLdyc9-17" vertex="1">
          <mxGeometry width="470" height="370" as="geometry" />
        </mxCell>
        <mxCell id="ElPAvXAODItGgV-7TAqq-1" value="" style="group;textShadow=1;" parent="zv_h5Y6OcpjjRqXLdyc9-17" vertex="1" connectable="0">
          <mxGeometry x="20" y="50" width="130" height="120" as="geometry" />
        </mxCell>
        <mxCell id="ElPAvXAODItGgV-7TAqq-2" value="&lt;h3&gt;UI&lt;br&gt;(Streamlit)&lt;/h3&gt;" style="rounded=0;whiteSpace=wrap;html=1;align=left;verticalAlign=top;labelPosition=center;verticalLabelPosition=middle;spacing=2;spacingLeft=0;spacingBottom=0;spacingTop=-17;fillColor=#dae8fc;strokeColor=#6c8ebf;" parent="ElPAvXAODItGgV-7TAqq-1" vertex="1">
          <mxGeometry width="130" height="120" as="geometry" />
        </mxCell>
        <mxCell id="zv_h5Y6OcpjjRqXLdyc9-19" value="" style="sketch=0;aspect=fixed;pointerEvents=1;shadow=0;dashed=0;html=1;strokeColor=none;labelPosition=center;verticalLabelPosition=bottom;verticalAlign=top;align=center;fillColor=#00188D;shape=mxgraph.mscae.enterprise.app_generic" parent="ElPAvXAODItGgV-7TAqq-1" vertex="1">
          <mxGeometry x="40" y="60" width="50" height="39" as="geometry" />
        </mxCell>
        <mxCell id="KIqIY7wPr9Du4U6m_4qA-2" value="" style="sketch=0;aspect=fixed;pointerEvents=1;shadow=0;dashed=0;html=1;strokeColor=none;labelPosition=center;verticalLabelPosition=bottom;verticalAlign=top;align=center;fillColor=#00188D;shape=mxgraph.mscae.enterprise.client_application" parent="zv_h5Y6OcpjjRqXLdyc9-17" vertex="1">
          <mxGeometry x="-184.81" y="81.5" width="91.4" height="58.5" as="geometry" />
        </mxCell>
        <mxCell id="KIqIY7wPr9Du4U6m_4qA-10" value="Sends Prompt To&amp;nbsp;" style="edgeStyle=orthogonalEdgeStyle;rounded=0;orthogonalLoop=1;jettySize=auto;html=1;exitX=0.88;exitY=0.208;exitDx=0;exitDy=0;exitPerimeter=0;entryX=-0.008;entryY=0.35;entryDx=0;entryDy=0;entryPerimeter=0;" parent="zv_h5Y6OcpjjRqXLdyc9-17" source="KIqIY7wPr9Du4U6m_4qA-2" target="ElPAvXAODItGgV-7TAqq-2" edge="1">
          <mxGeometry relative="1" as="geometry">
            <mxPoint x="-134" y="199" as="sourcePoint" />
          </mxGeometry>
        </mxCell>
        <mxCell id="KIqIY7wPr9Du4U6m_4qA-16" style="edgeStyle=orthogonalEdgeStyle;rounded=0;orthogonalLoop=1;jettySize=auto;html=1;exitX=0.023;exitY=0.59;exitDx=0;exitDy=0;entryX=0.974;entryY=0.766;entryDx=0;entryDy=0;entryPerimeter=0;exitPerimeter=0;" parent="zv_h5Y6OcpjjRqXLdyc9-17" source="ElPAvXAODItGgV-7TAqq-2" target="KIqIY7wPr9Du4U6m_4qA-2" edge="1">
          <mxGeometry relative="1" as="geometry" />
        </mxCell>
        <mxCell id="KIqIY7wPr9Du4U6m_4qA-17" value="Returns Content" style="edgeLabel;html=1;align=center;verticalAlign=middle;resizable=0;points=[];" parent="KIqIY7wPr9Du4U6m_4qA-16" vertex="1" connectable="0">
          <mxGeometry x="0.0922" y="-1" relative="1" as="geometry">
            <mxPoint x="9" y="-2" as="offset" />
          </mxGeometry>
        </mxCell>
        <mxCell id="KIqIY7wPr9Du4U6m_4qA-3" value="" style="group;textShadow=1;" parent="zv_h5Y6OcpjjRqXLdyc9-17" vertex="1" connectable="0">
          <mxGeometry x="20" y="230" width="130" height="130" as="geometry" />
        </mxCell>
        <mxCell id="KIqIY7wPr9Du4U6m_4qA-4" value="&lt;h3&gt;Generative Model&lt;br&gt;(Ollama)&lt;/h3&gt;" style="rounded=0;whiteSpace=wrap;html=1;align=left;verticalAlign=top;labelPosition=center;verticalLabelPosition=middle;spacing=2;spacingLeft=0;spacingBottom=0;spacingTop=-17;fillColor=#f8cecc;strokeColor=#b85450;" parent="KIqIY7wPr9Du4U6m_4qA-3" vertex="1">
          <mxGeometry width="130" height="130" as="geometry" />
        </mxCell>
        <mxCell id="KIqIY7wPr9Du4U6m_4qA-7" value="" style="sketch=0;outlineConnect=0;fontColor=#232F3E;gradientColor=none;fillColor=#01A88D;strokeColor=none;dashed=0;verticalLabelPosition=bottom;verticalAlign=top;align=center;html=1;fontSize=12;fontStyle=0;aspect=fixed;pointerEvents=1;shape=mxgraph.aws4.sagemaker_model;" parent="KIqIY7wPr9Du4U6m_4qA-3" vertex="1">
          <mxGeometry x="36" y="50" width="58" height="58" as="geometry" />
        </mxCell>
        <mxCell id="ElPAvXAODItGgV-7TAqq-4" style="edgeStyle=orthogonalEdgeStyle;rounded=0;orthogonalLoop=1;jettySize=auto;html=1;exitX=0.25;exitY=1;exitDx=0;exitDy=0;entryX=0.25;entryY=0;entryDx=0;entryDy=0;" parent="zv_h5Y6OcpjjRqXLdyc9-17" source="ElPAvXAODItGgV-7TAqq-2" target="KIqIY7wPr9Du4U6m_4qA-4" edge="1">
          <mxGeometry relative="1" as="geometry" />
        </mxCell>
        <mxCell id="ElPAvXAODItGgV-7TAqq-5" value="Sends Prompt w/ Context" style="edgeLabel;html=1;align=center;verticalAlign=middle;resizable=0;points=[];" parent="ElPAvXAODItGgV-7TAqq-4" vertex="1" connectable="0">
          <mxGeometry x="-0.1894" y="1" relative="1" as="geometry">
            <mxPoint x="-5" y="-4" as="offset" />
          </mxGeometry>
        </mxCell>
        <mxCell id="ElPAvXAODItGgV-7TAqq-6" style="edgeStyle=orthogonalEdgeStyle;rounded=0;orthogonalLoop=1;jettySize=auto;html=1;exitX=0.75;exitY=0;exitDx=0;exitDy=0;entryX=0.75;entryY=1;entryDx=0;entryDy=0;" parent="zv_h5Y6OcpjjRqXLdyc9-17" source="KIqIY7wPr9Du4U6m_4qA-4" target="ElPAvXAODItGgV-7TAqq-2" edge="1">
          <mxGeometry relative="1" as="geometry" />
        </mxCell>
        <mxCell id="ElPAvXAODItGgV-7TAqq-7" value="Returns Generated Content" style="edgeLabel;html=1;align=center;verticalAlign=middle;resizable=0;points=[];" parent="ElPAvXAODItGgV-7TAqq-6" vertex="1" connectable="0">
          <mxGeometry x="-0.1611" relative="1" as="geometry">
            <mxPoint x="9" y="5" as="offset" />
          </mxGeometry>
        </mxCell>
        <mxCell id="ElPAvXAODItGgV-7TAqq-8" value="" style="group;textShadow=1;" parent="zv_h5Y6OcpjjRqXLdyc9-17" vertex="1" connectable="0">
          <mxGeometry x="320" y="50" width="130" height="130" as="geometry" />
        </mxCell>
        <mxCell id="ElPAvXAODItGgV-7TAqq-9" value="&lt;h3&gt;RAG&lt;br&gt;(Python)&lt;/h3&gt;" style="rounded=0;whiteSpace=wrap;html=1;align=left;verticalAlign=top;labelPosition=center;verticalLabelPosition=middle;spacing=2;spacingLeft=0;spacingBottom=0;spacingTop=-17;fillColor=#e1d5e7;strokeColor=#9673a6;" parent="ElPAvXAODItGgV-7TAqq-8" vertex="1">
          <mxGeometry width="130" height="120" as="geometry" />
        </mxCell>
        <mxCell id="ElPAvXAODItGgV-7TAqq-11" value="" style="shape=switch;whiteSpace=wrap;html=1;" parent="ElPAvXAODItGgV-7TAqq-8" vertex="1">
          <mxGeometry x="35" y="50" width="60" height="60" as="geometry" />
        </mxCell>
        <mxCell id="DRT4EkGlhoHGdxRZwR4P-1" style="edgeStyle=orthogonalEdgeStyle;rounded=0;orthogonalLoop=1;jettySize=auto;html=1;exitX=0.5;exitY=1;exitDx=0;exitDy=0;" edge="1" parent="ElPAvXAODItGgV-7TAqq-8" source="ElPAvXAODItGgV-7TAqq-9" target="ElPAvXAODItGgV-7TAqq-9">
          <mxGeometry relative="1" as="geometry" />
        </mxCell>
        <mxCell id="ElPAvXAODItGgV-7TAqq-31" value="" style="group;textShadow=1;" parent="zv_h5Y6OcpjjRqXLdyc9-17" vertex="1" connectable="0">
          <mxGeometry x="320" y="230" width="135" height="130" as="geometry" />
        </mxCell>
        <mxCell id="ElPAvXAODItGgV-7TAqq-32" value="&lt;h3&gt;Vector Store&lt;br&gt;(Chroma)&lt;/h3&gt;" style="rounded=0;whiteSpace=wrap;html=1;align=left;verticalAlign=top;labelPosition=center;verticalLabelPosition=middle;spacing=2;spacingLeft=0;spacingBottom=0;spacingTop=-17;fillColor=#ffe6cc;strokeColor=#d79b00;" parent="ElPAvXAODItGgV-7TAqq-31" vertex="1">
          <mxGeometry width="130" height="130" as="geometry" />
        </mxCell>
        <mxCell id="ElPAvXAODItGgV-7TAqq-34" value="" style="shape=cylinder3;whiteSpace=wrap;html=1;boundedLbl=1;backgroundOutline=1;size=15;" parent="ElPAvXAODItGgV-7TAqq-31" vertex="1">
          <mxGeometry x="45" y="50" width="40" height="60" as="geometry" />
        </mxCell>
        <mxCell id="ElPAvXAODItGgV-7TAqq-35" style="edgeStyle=orthogonalEdgeStyle;rounded=0;orthogonalLoop=1;jettySize=auto;html=1;exitX=1;exitY=0.25;exitDx=0;exitDy=0;entryX=0;entryY=0.25;entryDx=0;entryDy=0;" parent="zv_h5Y6OcpjjRqXLdyc9-17" source="ElPAvXAODItGgV-7TAqq-2" target="ElPAvXAODItGgV-7TAqq-9" edge="1">
          <mxGeometry relative="1" as="geometry" />
        </mxCell>
        <mxCell id="ElPAvXAODItGgV-7TAqq-36" value="Sends Prompt To" style="edgeLabel;html=1;align=center;verticalAlign=middle;resizable=0;points=[];" parent="ElPAvXAODItGgV-7TAqq-35" vertex="1" connectable="0">
          <mxGeometry x="-0.0118" relative="1" as="geometry">
            <mxPoint as="offset" />
          </mxGeometry>
        </mxCell>
        <mxCell id="ElPAvXAODItGgV-7TAqq-37" style="edgeStyle=orthogonalEdgeStyle;rounded=0;orthogonalLoop=1;jettySize=auto;html=1;exitX=0.5;exitY=1;exitDx=0;exitDy=0;entryX=0.5;entryY=0;entryDx=0;entryDy=0;" parent="zv_h5Y6OcpjjRqXLdyc9-17" source="ElPAvXAODItGgV-7TAqq-9" target="ElPAvXAODItGgV-7TAqq-32" edge="1">
          <mxGeometry relative="1" as="geometry" />
        </mxCell>
        <mxCell id="ElPAvXAODItGgV-7TAqq-38" value="Retrieves Documents From" style="edgeLabel;html=1;align=center;verticalAlign=middle;resizable=0;points=[];" parent="ElPAvXAODItGgV-7TAqq-37" vertex="1" connectable="0">
          <mxGeometry y="-1" relative="1" as="geometry">
            <mxPoint as="offset" />
          </mxGeometry>
        </mxCell>
        <mxCell id="ElPAvXAODItGgV-7TAqq-39" style="edgeStyle=orthogonalEdgeStyle;rounded=0;orthogonalLoop=1;jettySize=auto;html=1;exitX=0;exitY=0.75;exitDx=0;exitDy=0;entryX=1;entryY=0.75;entryDx=0;entryDy=0;" parent="zv_h5Y6OcpjjRqXLdyc9-17" source="ElPAvXAODItGgV-7TAqq-9" target="ElPAvXAODItGgV-7TAqq-2" edge="1">
          <mxGeometry relative="1" as="geometry" />
        </mxCell>
        <mxCell id="ElPAvXAODItGgV-7TAqq-40" value="Returns Context" style="edgeLabel;html=1;align=center;verticalAlign=middle;resizable=0;points=[];" parent="ElPAvXAODItGgV-7TAqq-39" vertex="1" connectable="0">
          <mxGeometry x="-0.0706" y="-1" relative="1" as="geometry">
            <mxPoint as="offset" />
          </mxGeometry>
        </mxCell>
      </root>
    </mxGraphModel>
  </diagram>
</mxfile>
